<svg xmlns="http://www.w3.org/2000/svg" xmlns:xlink="http://www.w3.org/1999/xlink" width="500" zoomAndPan="magnify" viewBox="0 0 375 374.999991" height="500" preserveAspectRatio="xMidYMid meet" version="1.0"><defs><g/><clipPath id="1019bc7e78"><path d="M 102.492188 187.199219 L 272.207031 187.199219 L 272.207031 200.980469 L 102.492188 200.980469 Z M 102.492188 187.199219 " clip-rule="nonzero"/></clipPath></defs><g fill="#ffffff" fill-opacity="1"><g transform="translate(20.313052, 214.539478)"><g><path d="M 35.84375 0 L 1.078125 0 L 1.078125 -0.4375 C 2.085938 -0.695312 2.8125 -1.300781 3.25 -2.25 C 3.6875 -3.207031 3.90625 -4.476562 3.90625 -6.0625 L 3.90625 -43.34375 C 3.90625 -44.957031 3.6875 -46.234375 3.25 -47.171875 C 2.8125 -48.117188 2.085938 -48.722656 1.078125 -48.984375 L 1.078125 -49.40625 L 35.84375 -49.40625 L 35.84375 -34.5 L 35.40625 -34.5 C 35.40625 -35.457031 35.164062 -36.539062 34.6875 -37.75 C 34.21875 -38.96875 33.535156 -40.210938 32.640625 -41.484375 C 31.742188 -42.753906 30.6875 -43.914062 29.46875 -44.96875 C 28.257812 -46.019531 26.898438 -46.878906 25.390625 -47.546875 C 23.890625 -48.210938 22.289062 -48.546875 20.59375 -48.546875 L 17.765625 -48.546875 L 17.765625 -26.828125 L 19.46875 -26.828125 C 20.53125 -26.828125 21.617188 -27.050781 22.734375 -27.5 C 23.847656 -27.945312 24.890625 -28.523438 25.859375 -29.234375 C 26.828125 -29.941406 27.632812 -30.726562 28.28125 -31.59375 C 28.925781 -32.457031 29.320312 -33.296875 29.46875 -34.109375 L 29.90625 -34.109375 L 29.90625 -18.6875 L 29.46875 -18.6875 C 29.320312 -19.519531 28.925781 -20.363281 28.28125 -21.21875 C 27.632812 -22.070312 26.828125 -22.851562 25.859375 -23.5625 C 24.890625 -24.269531 23.847656 -24.847656 22.734375 -25.296875 C 21.617188 -25.742188 20.53125 -25.96875 19.46875 -25.96875 L 17.765625 -25.96875 L 17.765625 -0.859375 L 20.59375 -0.859375 C 22.289062 -0.859375 23.890625 -1.191406 25.390625 -1.859375 C 26.898438 -2.523438 28.257812 -3.382812 29.46875 -4.4375 C 30.6875 -5.5 31.742188 -6.664062 32.640625 -7.9375 C 33.535156 -9.207031 34.21875 -10.445312 34.6875 -11.65625 C 35.164062 -12.875 35.40625 -13.957031 35.40625 -14.90625 L 35.84375 -14.90625 Z M 35.84375 0 "/></g></g></g><g fill="#ffffff" fill-opacity="1"><g transform="translate(55.947559, 214.539478)"><g><path d="M 0 -0.4375 C 1.070312 -0.4375 2.207031 -0.859375 3.40625 -1.703125 C 4.601562 -2.554688 5.875 -3.992188 7.21875 -6.015625 C 8.5625 -8.046875 10 -10.820312 11.53125 -14.34375 C 12.25 -15.988281 12.894531 -17.507812 13.46875 -18.90625 C 14.050781 -20.3125 14.53125 -21.492188 14.90625 -22.453125 C 14.738281 -22.890625 14.570312 -23.296875 14.40625 -23.671875 C 14.25 -24.046875 14.097656 -24.375 13.953125 -24.65625 C 13.609375 -25.4375 13.117188 -26.570312 12.484375 -28.0625 C 11.847656 -29.550781 11.117188 -31.210938 10.296875 -33.046875 C 9.472656 -34.878906 8.601562 -36.71875 7.6875 -38.5625 C 6.78125 -40.414062 5.863281 -42.128906 4.9375 -43.703125 C 4.007812 -45.285156 3.117188 -46.5625 2.265625 -47.53125 C 1.421875 -48.5 0.664062 -48.984375 0 -48.984375 L 0 -49.40625 L 22.109375 -49.40625 L 22.109375 -48.984375 C 21.148438 -48.773438 20.5 -48.332031 20.15625 -47.65625 C 19.8125 -46.976562 19.671875 -46.15625 19.734375 -45.1875 C 19.804688 -44.21875 20.007812 -43.191406 20.34375 -42.109375 C 20.675781 -41.023438 21.03125 -39.960938 21.40625 -38.921875 C 21.726562 -38.085938 22.117188 -37.0625 22.578125 -35.84375 C 23.046875 -34.632812 23.539062 -33.367188 24.0625 -32.046875 C 24.582031 -30.734375 25.085938 -29.5 25.578125 -28.34375 C 26.066406 -29.5 26.675781 -31.023438 27.40625 -32.921875 C 28.144531 -34.816406 28.863281 -36.773438 29.5625 -38.796875 C 30.25 -40.816406 30.773438 -42.503906 31.140625 -43.859375 C 31.503906 -45.222656 31.535156 -46.316406 31.234375 -47.140625 C 30.929688 -47.960938 30.097656 -48.578125 28.734375 -48.984375 L 28.734375 -49.40625 L 41.09375 -49.40625 L 41.09375 -48.984375 C 40.019531 -48.984375 38.875 -48.546875 37.65625 -47.671875 C 36.445312 -46.804688 35.15625 -45.363281 33.78125 -43.34375 C 32.414062 -41.320312 30.953125 -38.5625 29.390625 -35.0625 C 28.691406 -33.5 28.066406 -32.007812 27.515625 -30.59375 C 26.972656 -29.1875 26.515625 -27.988281 26.140625 -27 C 26.515625 -26.132812 26.847656 -25.382812 27.140625 -24.75 C 27.453125 -24.144531 27.859375 -23.25 28.359375 -22.0625 C 28.867188 -20.875 29.457031 -19.53125 30.125 -18.03125 C 30.789062 -16.53125 31.503906 -14.96875 32.265625 -13.34375 C 33.035156 -11.726562 33.816406 -10.15625 34.609375 -8.625 C 35.398438 -7.09375 36.1875 -5.710938 36.96875 -4.484375 C 37.75 -3.253906 38.484375 -2.269531 39.171875 -1.53125 C 39.867188 -0.800781 40.507812 -0.4375 41.09375 -0.4375 L 41.09375 0 L 18.984375 0 L 18.984375 -0.4375 C 19.941406 -0.664062 20.59375 -1.113281 20.9375 -1.78125 C 21.28125 -2.445312 21.414062 -3.257812 21.34375 -4.21875 C 21.269531 -5.1875 21.070312 -6.210938 20.75 -7.296875 C 20.4375 -8.378906 20.078125 -9.441406 19.671875 -10.484375 C 19.359375 -11.359375 18.960938 -12.398438 18.484375 -13.609375 C 18.003906 -14.828125 17.5 -16.097656 16.96875 -17.421875 C 16.4375 -18.753906 15.925781 -20 15.4375 -21.15625 C 14.96875 -20.03125 14.359375 -18.503906 13.609375 -16.578125 C 12.859375 -14.660156 12.125 -12.675781 11.40625 -10.625 C 10.707031 -8.59375 10.179688 -6.898438 9.828125 -5.546875 C 9.484375 -4.191406 9.484375 -3.101562 9.828125 -2.28125 C 10.179688 -1.457031 11.023438 -0.84375 12.359375 -0.4375 L 12.359375 0 L 0 0 Z M 0 -0.4375 "/></g></g></g><g fill="#ffffff" fill-opacity="1"><g transform="translate(95.743766, 214.539478)"><g><path d="M 1.953125 -24.703125 C 1.953125 -28.691406 2.53125 -32.265625 3.6875 -35.421875 C 4.84375 -38.585938 6.421875 -41.269531 8.421875 -43.46875 C 10.429688 -45.664062 12.738281 -47.34375 15.34375 -48.5 C 17.945312 -49.65625 20.707031 -50.234375 23.625 -50.234375 C 24.8125 -50.234375 25.820312 -50.1875 26.65625 -50.09375 C 27.488281 -50.007812 28.28125 -49.914062 29.03125 -49.8125 C 29.789062 -49.71875 30.59375 -49.625 31.4375 -49.53125 C 32.289062 -49.445312 33.296875 -49.40625 34.453125 -49.40625 C 34.890625 -49.40625 35.359375 -49.46875 35.859375 -49.59375 C 36.367188 -49.726562 36.738281 -49.941406 36.96875 -50.234375 L 37.40625 -50.234375 L 37.40625 -34.5 L 36.96875 -34.5 C 36.820312 -35.6875 36.539062 -36.953125 36.125 -38.296875 C 35.707031 -39.640625 35.164062 -40.957031 34.5 -42.25 C 33.832031 -43.550781 33.046875 -44.738281 32.140625 -45.8125 C 31.234375 -46.882812 30.210938 -47.738281 29.078125 -48.375 C 27.953125 -49.007812 26.726562 -49.328125 25.40625 -49.328125 C 23.726562 -49.328125 22.3125 -48.640625 21.15625 -47.265625 C 20 -45.890625 19.054688 -44.03125 18.328125 -41.6875 C 17.609375 -39.351562 17.082031 -36.71875 16.75 -33.78125 C 16.414062 -30.851562 16.25 -27.8125 16.25 -24.65625 C 16.25 -22.175781 16.347656 -19.734375 16.546875 -17.328125 C 16.753906 -14.929688 17.082031 -12.6875 17.53125 -10.59375 C 17.976562 -8.5 18.5625 -6.65625 19.28125 -5.0625 C 20.007812 -3.476562 20.878906 -2.238281 21.890625 -1.34375 C 22.898438 -0.445312 24.070312 0 25.40625 0 C 26.5 0 27.519531 -0.34375 28.46875 -1.03125 C 29.425781 -1.726562 30.300781 -2.65625 31.09375 -3.8125 C 31.894531 -4.96875 32.613281 -6.238281 33.25 -7.625 C 33.882812 -9.007812 34.445312 -10.394531 34.9375 -11.78125 C 35.425781 -13.175781 35.835938 -14.460938 36.171875 -15.640625 C 36.503906 -16.828125 36.769531 -17.769531 36.96875 -18.46875 L 37.40625 -18.46875 L 37.40625 -2.734375 C 37.40625 -2.734375 37.144531 -2.550781 36.625 -2.1875 C 36.101562 -1.820312 35.289062 -1.410156 34.1875 -0.953125 C 33.09375 -0.492188 31.671875 -0.0820312 29.921875 0.28125 C 28.179688 0.644531 26.082031 0.828125 23.625 0.828125 C 20.707031 0.828125 17.945312 0.25 15.34375 -0.90625 C 12.738281 -2.0625 10.429688 -3.738281 8.421875 -5.9375 C 6.421875 -8.132812 4.84375 -10.8125 3.6875 -13.96875 C 2.53125 -17.132812 1.953125 -20.710938 1.953125 -24.703125 Z M 1.953125 -24.703125 "/></g></g></g><g fill="#ffffff" fill-opacity="1"><g transform="translate(133.805931, 214.539478)"><g><path d="M 35.84375 0 L 1.078125 0 L 1.078125 -0.4375 C 2.085938 -0.695312 2.8125 -1.300781 3.25 -2.25 C 3.6875 -3.207031 3.90625 -4.476562 3.90625 -6.0625 L 3.90625 -43.34375 C 3.90625 -44.957031 3.6875 -46.234375 3.25 -47.171875 C 2.8125 -48.117188 2.085938 -48.722656 1.078125 -48.984375 L 1.078125 -49.40625 L 35.84375 -49.40625 L 35.84375 -34.5 L 35.40625 -34.5 C 35.40625 -35.457031 35.164062 -36.539062 34.6875 -37.75 C 34.21875 -38.96875 33.535156 -40.210938 32.640625 -41.484375 C 31.742188 -42.753906 30.6875 -43.914062 29.46875 -44.96875 C 28.257812 -46.019531 26.898438 -46.878906 25.390625 -47.546875 C 23.890625 -48.210938 22.289062 -48.546875 20.59375 -48.546875 L 17.765625 -48.546875 L 17.765625 -26.828125 L 19.46875 -26.828125 C 20.53125 -26.828125 21.617188 -27.050781 22.734375 -27.5 C 23.847656 -27.945312 24.890625 -28.523438 25.859375 -29.234375 C 26.828125 -29.941406 27.632812 -30.726562 28.28125 -31.59375 C 28.925781 -32.457031 29.320312 -33.296875 29.46875 -34.109375 L 29.90625 -34.109375 L 29.90625 -18.6875 L 29.46875 -18.6875 C 29.320312 -19.519531 28.925781 -20.363281 28.28125 -21.21875 C 27.632812 -22.070312 26.828125 -22.851562 25.859375 -23.5625 C 24.890625 -24.269531 23.847656 -24.847656 22.734375 -25.296875 C 21.617188 -25.742188 20.53125 -25.96875 19.46875 -25.96875 L 17.765625 -25.96875 L 17.765625 -0.859375 L 20.59375 -0.859375 C 22.289062 -0.859375 23.890625 -1.191406 25.390625 -1.859375 C 26.898438 -2.523438 28.257812 -3.382812 29.46875 -4.4375 C 30.6875 -5.5 31.742188 -6.664062 32.640625 -7.9375 C 33.535156 -9.207031 34.21875 -10.445312 34.6875 -11.65625 C 35.164062 -12.875 35.40625 -13.957031 35.40625 -14.90625 L 35.84375 -14.90625 Z M 35.84375 0 "/></g></g></g><g fill="#ffffff" fill-opacity="1"><g transform="translate(169.440441, 214.539478)"><g><path d="M 1.078125 -49.40625 L 20.59375 -49.40625 L 20.59375 -48.984375 C 19.582031 -48.722656 18.859375 -48.117188 18.421875 -47.171875 C 17.984375 -46.234375 17.765625 -44.957031 17.765625 -43.34375 L 17.765625 -0.859375 L 20.28125 -0.859375 C 21.988281 -0.859375 23.59375 -1.191406 25.09375 -1.859375 C 26.59375 -2.523438 27.945312 -3.382812 29.15625 -4.4375 C 30.375 -5.5 31.429688 -6.664062 32.328125 -7.9375 C 33.222656 -9.207031 33.910156 -10.445312 34.390625 -11.65625 C 34.867188 -12.875 35.109375 -13.957031 35.109375 -14.90625 L 35.546875 -14.90625 L 35.546875 0 L 1.078125 0 L 1.078125 -0.4375 C 2.085938 -0.695312 2.8125 -1.300781 3.25 -2.25 C 3.6875 -3.207031 3.90625 -4.476562 3.90625 -6.0625 L 3.90625 -43.34375 C 3.90625 -44.957031 3.6875 -46.234375 3.25 -47.171875 C 2.8125 -48.117188 2.085938 -48.722656 1.078125 -48.984375 Z M 1.078125 -49.40625 "/></g></g></g><g fill="#ffffff" fill-opacity="1"><g transform="translate(204.771487, 214.539478)"><g><path d="M 1.078125 -49.40625 L 20.59375 -49.40625 L 20.59375 -48.984375 C 19.582031 -48.722656 18.859375 -48.117188 18.421875 -47.171875 C 17.984375 -46.234375 17.765625 -44.957031 17.765625 -43.34375 L 17.765625 -0.859375 L 20.28125 -0.859375 C 21.988281 -0.859375 23.59375 -1.191406 25.09375 -1.859375 C 26.59375 -2.523438 27.945312 -3.382812 29.15625 -4.4375 C 30.375 -5.5 31.429688 -6.664062 32.328125 -7.9375 C 33.222656 -9.207031 33.910156 -10.445312 34.390625 -11.65625 C 34.867188 -12.875 35.109375 -13.957031 35.109375 -14.90625 L 35.546875 -14.90625 L 35.546875 0 L 1.078125 0 L 1.078125 -0.4375 C 2.085938 -0.695312 2.8125 -1.300781 3.25 -2.25 C 3.6875 -3.207031 3.90625 -4.476562 3.90625 -6.0625 L 3.90625 -43.34375 C 3.90625 -44.957031 3.6875 -46.234375 3.25 -47.171875 C 2.8125 -48.117188 2.085938 -48.722656 1.078125 -48.984375 Z M 1.078125 -49.40625 "/></g></g></g><g fill="#ffffff" fill-opacity="1"><g transform="translate(240.102544, 214.539478)"><g><path d="M 35.84375 0 L 1.078125 0 L 1.078125 -0.4375 C 2.085938 -0.695312 2.8125 -1.300781 3.25 -2.25 C 3.6875 -3.207031 3.90625 -4.476562 3.90625 -6.0625 L 3.90625 -43.34375 C 3.90625 -44.957031 3.6875 -46.234375 3.25 -47.171875 C 2.8125 -48.117188 2.085938 -48.722656 1.078125 -48.984375 L 1.078125 -49.40625 L 35.84375 -49.40625 L 35.84375 -34.5 L 35.40625 -34.5 C 35.40625 -35.457031 35.164062 -36.539062 34.6875 -37.75 C 34.21875 -38.96875 33.535156 -40.210938 32.640625 -41.484375 C 31.742188 -42.753906 30.6875 -43.914062 29.46875 -44.96875 C 28.257812 -46.019531 26.898438 -46.878906 25.390625 -47.546875 C 23.890625 -48.210938 22.289062 -48.546875 20.59375 -48.546875 L 17.765625 -48.546875 L 17.765625 -26.828125 L 19.46875 -26.828125 C 20.53125 -26.828125 21.617188 -27.050781 22.734375 -27.5 C 23.847656 -27.945312 24.890625 -28.523438 25.859375 -29.234375 C 26.828125 -29.941406 27.632812 -30.726562 28.28125 -31.59375 C 28.925781 -32.457031 29.320312 -33.296875 29.46875 -34.109375 L 29.90625 -34.109375 L 29.90625 -18.6875 L 29.46875 -18.6875 C 29.320312 -19.519531 28.925781 -20.363281 28.28125 -21.21875 C 27.632812 -22.070312 26.828125 -22.851562 25.859375 -23.5625 C 24.890625 -24.269531 23.847656 -24.847656 22.734375 -25.296875 C 21.617188 -25.742188 20.53125 -25.96875 19.46875 -25.96875 L 17.765625 -25.96875 L 17.765625 -0.859375 L 20.59375 -0.859375 C 22.289062 -0.859375 23.890625 -1.191406 25.390625 -1.859375 C 26.898438 -2.523438 28.257812 -3.382812 29.46875 -4.4375 C 30.6875 -5.5 31.742188 -6.664062 32.640625 -7.9375 C 33.535156 -9.207031 34.21875 -10.445312 34.6875 -11.65625 C 35.164062 -12.875 35.40625 -13.957031 35.40625 -14.90625 L 35.84375 -14.90625 Z M 35.84375 0 "/></g></g></g><g fill="#ffffff" fill-opacity="1"><g transform="translate(275.737043, 214.539478)"><g><path d="M 1.078125 -48.984375 L 1.078125 -49.40625 L 15.21875 -49.40625 L 35.765625 -14.171875 L 35.765625 -16.984375 C 35.765625 -19.128906 35.617188 -21.382812 35.328125 -23.75 C 35.035156 -26.125 34.628906 -28.492188 34.109375 -30.859375 C 33.585938 -33.234375 32.976562 -35.476562 32.28125 -37.59375 C 31.59375 -39.71875 30.820312 -41.625 29.96875 -43.3125 C 29.113281 -45.007812 28.222656 -46.351562 27.296875 -47.34375 C 26.378906 -48.34375 25.441406 -48.890625 24.484375 -48.984375 L 24.484375 -49.40625 L 39.4375 -49.40625 L 39.4375 -48.984375 C 38.425781 -48.722656 37.703125 -48.117188 37.265625 -47.171875 C 36.835938 -46.234375 36.625 -44.957031 36.625 -43.34375 L 36.625 -6.0625 C 36.625 -4.476562 36.835938 -3.207031 37.265625 -2.25 C 37.703125 -1.300781 38.425781 -0.695312 39.4375 -0.4375 L 39.4375 0 L 27.4375 0 L 4.765625 -38.921875 L 4.765625 -36.578125 C 4.765625 -34.242188 4.898438 -31.773438 5.171875 -29.171875 C 5.453125 -26.566406 5.851562 -23.960938 6.375 -21.359375 C 6.894531 -18.765625 7.515625 -16.273438 8.234375 -13.890625 C 8.953125 -11.503906 9.742188 -9.34375 10.609375 -7.40625 C 11.484375 -5.46875 12.410156 -3.890625 13.390625 -2.671875 C 14.367188 -1.460938 15.394531 -0.71875 16.46875 -0.4375 L 16.46875 0 L 1.078125 0 L 1.078125 -0.4375 C 2.085938 -0.695312 2.8125 -1.300781 3.25 -2.25 C 3.6875 -3.207031 3.90625 -4.476562 3.90625 -6.0625 L 3.90625 -43.34375 C 3.90625 -44.957031 3.6875 -46.234375 3.25 -47.171875 C 2.8125 -48.117188 2.085938 -48.722656 1.078125 -48.984375 Z M 1.078125 -48.984375 "/></g></g></g><g fill="#ffffff" fill-opacity="1"><g transform="translate(314.969697, 214.539478)"><g><path d="M 1.078125 -32.71875 L 1.078125 -49.40625 L 38.625 -49.40625 L 38.625 -32.71875 L 38.1875 -32.71875 C 38.1875 -33.96875 37.988281 -35.304688 37.59375 -36.734375 C 37.207031 -38.160156 36.660156 -39.570312 35.953125 -40.96875 C 35.242188 -42.375 34.421875 -43.648438 33.484375 -44.796875 C 32.546875 -45.941406 31.523438 -46.851562 30.421875 -47.53125 C 29.328125 -48.207031 28.1875 -48.546875 27 -48.546875 L 26.5625 -48.546875 L 26.5625 -6.0625 C 26.5625 -4.476562 26.78125 -3.207031 27.21875 -2.25 C 27.65625 -1.300781 28.378906 -0.695312 29.390625 -0.4375 L 29.390625 0 L 9.875 0 L 9.875 -0.4375 C 10.894531 -0.695312 11.617188 -1.300781 12.046875 -2.25 C 12.484375 -3.207031 12.703125 -4.476562 12.703125 -6.0625 L 12.703125 -48.546875 C 11.546875 -48.546875 10.410156 -48.207031 9.296875 -47.53125 C 8.179688 -46.851562 7.15625 -45.941406 6.21875 -44.796875 C 5.28125 -43.648438 4.457031 -42.375 3.75 -40.96875 C 3.039062 -39.570312 2.488281 -38.160156 2.09375 -36.734375 C 1.707031 -35.304688 1.515625 -33.96875 1.515625 -32.71875 Z M 1.078125 -32.71875 "/></g></g></g><g clip-path="url(#1019bc7e78)"><path fill="#ebe8e8" d="M 102.492188 187.199219 L 272.203125 187.199219 L 272.203125 200.980469 L 102.492188 200.980469 Z M 102.492188 187.199219 " fill-opacity="1" fill-rule="nonzero"/></g><g fill="#ffffff" fill-opacity="1"><g transform="translate(166.017398, 195.816185)"><g><path d="M 3.65625 0 L 3.65625 -2.046875 L 1.234375 -2.046875 L 1.234375 0 L 0.671875 0 L 0.671875 -4.5625 L 1.234375 -4.5625 L 1.234375 -2.59375 L 3.65625 -2.59375 L 3.65625 -4.5625 L 4.234375 -4.5625 L 4.234375 0 Z M 3.65625 0 "/></g></g></g><g fill="#ffffff" fill-opacity="1"><g transform="translate(176.132713, 195.816185)"><g><path d="M 2.734375 0.078125 C 2.273438 0.078125 1.867188 -0.0195312 1.515625 -0.21875 C 1.160156 -0.414062 0.878906 -0.691406 0.671875 -1.046875 C 0.472656 -1.410156 0.375 -1.820312 0.375 -2.28125 C 0.375 -2.75 0.472656 -3.160156 0.671875 -3.515625 C 0.878906 -3.867188 1.160156 -4.144531 1.515625 -4.34375 C 1.867188 -4.539062 2.273438 -4.640625 2.734375 -4.640625 C 3.203125 -4.640625 3.613281 -4.539062 3.96875 -4.34375 C 4.320312 -4.144531 4.597656 -3.867188 4.796875 -3.515625 C 5.003906 -3.160156 5.109375 -2.75 5.109375 -2.28125 C 5.109375 -1.820312 5.003906 -1.410156 4.796875 -1.046875 C 4.597656 -0.691406 4.320312 -0.414062 3.96875 -0.21875 C 3.613281 -0.0195312 3.203125 0.078125 2.734375 0.078125 Z M 0.96875 -2.28125 C 0.96875 -1.925781 1.039062 -1.613281 1.1875 -1.34375 C 1.332031 -1.070312 1.539062 -0.859375 1.8125 -0.703125 C 2.082031 -0.554688 2.390625 -0.484375 2.734375 -0.484375 C 3.085938 -0.484375 3.394531 -0.554688 3.65625 -0.703125 C 3.925781 -0.859375 4.132812 -1.070312 4.28125 -1.34375 C 4.4375 -1.613281 4.515625 -1.925781 4.515625 -2.28125 C 4.515625 -2.632812 4.4375 -2.941406 4.28125 -3.203125 C 4.132812 -3.472656 3.925781 -3.6875 3.65625 -3.84375 C 3.394531 -4 3.085938 -4.078125 2.734375 -4.078125 C 2.390625 -4.078125 2.082031 -4 1.8125 -3.84375 C 1.539062 -3.6875 1.332031 -3.472656 1.1875 -3.203125 C 1.039062 -2.941406 0.96875 -2.632812 0.96875 -2.28125 Z M 0.96875 -2.28125 "/></g></g></g><g fill="#ffffff" fill-opacity="1"><g transform="translate(186.828472, 195.816185)"><g><path d="M 1.765625 0 L 1.765625 -4.015625 L 0.21875 -4.015625 L 0.21875 -4.5625 L 3.875 -4.5625 L 3.875 -4.015625 L 2.34375 -4.015625 L 2.34375 0 Z M 1.765625 0 "/></g></g></g><g fill="#ffffff" fill-opacity="1"><g transform="translate(196.154647, 195.816185)"><g><path d="M 0.671875 0 L 0.671875 -4.5625 L 3.4375 -4.5625 L 3.4375 -4.03125 L 1.234375 -4.03125 L 1.234375 -2.59375 L 3.265625 -2.59375 L 3.265625 -2.0625 L 1.234375 -2.0625 L 1.234375 -0.53125 L 3.5 -0.53125 L 3.5 0 Z M 0.671875 0 "/></g></g></g><g fill="#ffffff" fill-opacity="1"><g transform="translate(205.304729, 195.816185)"><g><path d="M 0.671875 0 L 0.671875 -4.5625 L 1.234375 -4.5625 L 1.234375 -0.546875 L 3.453125 -0.546875 L 3.453125 0 Z M 0.671875 0 "/></g></g></g></svg>